<?xml version="1.0" encoding="UTF-8"?>
<mxfile host="app.diagrams.net" modified="2025-06-04T12:00:00.000Z" agent="5.0" etag="enterprise-workforce-v2.0" version="21.0.0" type="device">
  <diagram name="Enterprise-Workforce-Architecture" id="enterprise-arch">
    <mxGraphModel dx="2074" dy="1196" grid="1" gridSize="10" guides="1" tooltips="1" connect="1" arrows="1" fold="1" page="1" pageScale="1" pageWidth="1654" pageHeight="1169" math="0" shadow="0">
      <root>
        <mxCell id="0" />
        <mxCell id="1" parent="0" />
        
        <!-- Title Header -->
        <mxCell id="title" value="🏢 ENTERPRISE WORKFORCE MANAGEMENT AGENT SYSTEM" style="text;strokeColor=none;fillColor=none;html=1;fontSize=24;fontStyle=1;verticalAlign=middle;align=center;fontColor=#1565C0;" vertex="1" parent="1">
          <mxGeometry x="400" y="20" width="800" height="40" as="geometry" />
        </mxCell>
        
        <mxCell id="subtitle" value="Multi-Agent AI Platform for Workforce Analytics &amp; Optimization" style="text;strokeColor=none;fillColor=none;html=1;fontSize=14;fontStyle=0;verticalAlign=middle;align=center;fontColor=#37474F;" vertex="1" parent="1">
          <mxGeometry x="400" y="60" width="800" height="30" as="geometry" />
        </mxCell>

        <!-- LAYER 1: USER INTERFACE -->
        <mxCell id="ui-layer" value="🖥️ USER INTERFACE LAYER" style="rounded=0;whiteSpace=wrap;html=1;fontSize=14;fontStyle=1;fillColor=#E1F5FE;strokeColor=#0277BD;strokeWidth=3;" vertex="1" parent="1">
          <mxGeometry x="50" y="120" width="1500" height="60" as="geometry" />
        </mxCell>
        
        <mxCell id="chainlit-ui" value="📱 Chainlit Web App&lt;br&gt;• Conversational Interface&lt;br&gt;• Real-time WebSocket&lt;br&gt;• Session Management" style="rounded=1;whiteSpace=wrap;html=1;fontSize=12;fillColor=#E1F5FE;strokeColor=#0277BD;strokeWidth=2;" vertex="1" parent="1">
          <mxGeometry x="100" y="200" width="200" height="80" as="geometry" />
        </mxCell>
        
        <mxCell id="plotly-charts" value="📊 Interactive Charts&lt;br&gt;• Plotly Visualizations&lt;br&gt;• Multi-series Support&lt;br&gt;• Real-time Updates" style="rounded=1;whiteSpace=wrap;html=1;fontSize=12;fillColor=#E1F5FE;strokeColor=#0277BD;strokeWidth=2;" vertex="1" parent="1">
          <mxGeometry x="350" y="200" width="200" height="80" as="geometry" />
        </mxCell>
        
        <mxCell id="context-display" value="💬 Context Display&lt;br&gt;• Conversation History&lt;br&gt;• Team Information&lt;br&gt;• Query Results" style="rounded=1;whiteSpace=wrap;html=1;fontSize=12;fillColor=#E1F5FE;strokeColor=#0277BD;strokeWidth=2;" vertex="1" parent="1">
          <mxGeometry x="600" y="200" width="200" height="80" as="geometry" />
        </mxCell>

        <!-- LAYER 2: API GATEWAY -->
        <mxCell id="api-layer" value="🌐 API GATEWAY &amp; ROUTING LAYER" style="rounded=0;whiteSpace=wrap;html=1;fontSize=14;fontStyle=1;fillColor=#F3E5F5;strokeColor=#7B1FA2;strokeWidth=3;" vertex="1" parent="1">
          <mxGeometry x="50" y="320" width="1500" height="60" as="geometry" />
        </mxCell>
        
        <mxCell id="fastapi-gateway" value="⚡ FastAPI Gateway&lt;br&gt;• WebSocket Handlers&lt;br&gt;• Request Validation&lt;br&gt;• Error Handling" style="rounded=1;whiteSpace=wrap;html=1;fontSize=12;fillColor=#F3E5F5;strokeColor=#7B1FA2;strokeWidth=2;" vertex="1" parent="1">
          <mxGeometry x="100" y="400" width="180" height="80" as="geometry" />
        </mxCell>
        
        <mxCell id="session-manager" value="🔐 Session Manager&lt;br&gt;• User Sessions&lt;br&gt;• Context Isolation&lt;br&gt;• Security Validation" style="rounded=1;whiteSpace=wrap;html=1;fontSize=12;fillColor=#F3E5F5;strokeColor=#7B1FA2;strokeWidth=2;" vertex="1" parent="1">
          <mxGeometry x="320" y="400" width="180" height="80" as="geometry" />
        </mxCell>
        
        <mxCell id="message-router" value="🎯 Message Router&lt;br&gt;• Intent Detection&lt;br&gt;• Agent Selection&lt;br&gt;• Response Routing" style="rounded=1;whiteSpace=wrap;html=1;fontSize=12;fillColor=#F3E5F5;strokeColor=#7B1FA2;strokeWidth=2;" vertex="1" parent="1">
          <mxGeometry x="540" y="400" width="180" height="80" as="geometry" />
        </mxCell>

        <!-- LAYER 3: ORCHESTRATION -->
        <mxCell id="orchestration-layer" value="🎭 ORCHESTRATION &amp; COORDINATION LAYER" style="rounded=0;whiteSpace=wrap;html=1;fontSize=14;fontStyle=1;fillColor=#FFF3E0;strokeColor=#F57C00;strokeWidth=3;" vertex="1" parent="1">
          <mxGeometry x="50" y="520" width="1500" height="60" as="geometry" />
        </mxCell>
        
        <mxCell id="orchestrator-agent" value="🎪 ORCHESTRATOR AGENT&lt;br&gt;🧠 Master Controller&lt;br&gt;• Intent Recognition&lt;br&gt;• Agent Delegation&lt;br&gt;• Response Coordination&lt;br&gt;• Context Management" style="rounded=1;whiteSpace=wrap;html=1;fontSize=13;fontStyle=1;fillColor=#FFF3E0;strokeColor=#F57C00;strokeWidth=4;" vertex="1" parent="1">
          <mxGeometry x="300" y="600" width="250" height="120" as="geometry" />
        </mxCell>
        
        <mxCell id="group-chat" value="💬 Group Chat Controller&lt;br&gt;• Multi-agent Coordination&lt;br&gt;• Message Sequencing&lt;br&gt;• State Management" style="rounded=1;whiteSpace=wrap;html=1;fontSize=12;fillColor=#FFF3E0;strokeColor=#F57C00;strokeWidth=2;" vertex="1" parent="1">
          <mxGeometry x="600" y="600" width="200" height="80" as="geometry" />
        </mxCell>

        <!-- LAYER 4: AGENT ECOSYSTEM -->
        <mxCell id="agent-layer" value="🤖 INTELLIGENT AGENT ECOSYSTEM" style="rounded=0;whiteSpace=wrap;html=1;fontSize=14;fontStyle=1;fillColor=#E8F5E8;strokeColor=#388E3C;strokeWidth=3;" vertex="1" parent="1">
          <mxGeometry x="50" y="760" width="1500" height="60" as="geometry" />
        </mxCell>
        
        <mxCell id="forecast-agent" value="📈 Forecast Agent&lt;br&gt;• Volume Prediction&lt;br&gt;• Semantic Search&lt;br&gt;• Business Intelligence&lt;br&gt;• Confidence Scoring" style="rounded=1;whiteSpace=wrap;html=1;fontSize=12;fillColor=#E8F5E8;strokeColor=#388E3C;strokeWidth=2;" vertex="1" parent="1">
          <mxGeometry x="80" y="840" width="160" height="100" as="geometry" />
        </mxCell>
        
        <mxCell id="analyst-agent" value="🔍 Data Analyst&lt;br&gt;• Trend Analysis&lt;br&gt;• Business Insights&lt;br&gt;• Impact Assessment&lt;br&gt;• Recommendations" style="rounded=1;whiteSpace=wrap;html=1;fontSize=12;fillColor=#E8F5E8;strokeColor=#388E3C;strokeWidth=2;" vertex="1" parent="1">
          <mxGeometry x="280" y="840" width="160" height="100" as="geometry" />
        </mxCell>
        
        <mxCell id="viz-agent" value="📊 Visualization&lt;br&gt;• Chart Generation&lt;br&gt;• Multi-series Support&lt;br&gt;• Ultra-robust Parsing&lt;br&gt;• Emergency Fallbacks" style="rounded=1;whiteSpace=wrap;html=1;fontSize=12;fillColor=#E8F5E8;strokeColor=#388E3C;strokeWidth=2;" vertex="1" parent="1">
          <mxGeometry x="480" y="840" width="160" height="100" as="geometry" />
        </mxCell>
        
        <mxCell id="kpi-agent" value="📋 KPI Agent&lt;br&gt;• Performance Metrics&lt;br&gt;• Dynamic Date Parsing&lt;br&gt;• Trend Analysis&lt;br&gt;• Historical Data" style="rounded=1;whiteSpace=wrap;html=1;fontSize=12;fillColor=#E8F5E8;strokeColor=#388E3C;strokeWidth=2;" vertex="1" parent="1">
          <mxGeometry x="680" y="840" width="160" height="100" as="geometry" />
        </mxCell>
        
        <mxCell id="simulation-agent" value="⚙️ Simulation Agent&lt;br&gt;• FTE Optimization&lt;br&gt;• SLA Analysis&lt;br&gt;• Capacity Planning&lt;br&gt;• Workforce Modeling" style="rounded=1;whiteSpace=wrap;html=1;fontSize=12;fillColor=#E8F5E8;strokeColor=#388E3C;strokeWidth=2;" vertex="1" parent="1">
          <mxGeometry x="880" y="840" width="160" height="100" as="geometry" />
        </mxCell>

        <!-- LAYER 5: FUNCTION EXECUTION -->
        <mxCell id="function-layer" value="⚡ FUNCTION EXECUTION &amp; PROCESSING LAYER" style="rounded=0;whiteSpace=wrap;html=1;fontSize=14;fontStyle=1;fillColor=#FFF8E1;strokeColor=#FFA000;strokeWidth=3;" vertex="1" parent="1">
          <mxGeometry x="50" y="980" width="1500" height="60" as="geometry" />
        </mxCell>
        
        <mxCell id="fetch-forecast-func" value="🔄 fetch_forecast()&lt;br&gt;• ChromaDB Query&lt;br&gt;• Embedding Search&lt;br&gt;• Metadata Filtering" style="rounded=1;whiteSpace=wrap;html=1;fontSize=11;fillColor=#FFF8E1;strokeColor=#FFA000;strokeWidth=2;" vertex="1" parent="1">
          <mxGeometry x="80" y="1060" width="140" height="70" as="geometry" />
        </mxCell>
        
        <mxCell id="create-viz-func" value="🎨 create_visualization()&lt;br&gt;• Plotly Generation&lt;br&gt;• Multi-format Parsing&lt;br&gt;• Error Recovery" style="rounded=1;whiteSpace=wrap;html=1;fontSize=11;fillColor=#FFF8E1;strokeColor=#FFA000;strokeWidth=2;" vertex="1" parent="1">
          <mxGeometry x="480" y="1060" width="140" height="70" as="geometry" />
        </mxCell>
        
        <mxCell id="fetch-kpi-func" value="📊 fetch_kpi()&lt;br&gt;• Semantic Search&lt;br&gt;• Date Parsing&lt;br&gt;• Confidence Scoring" style="rounded=1;whiteSpace=wrap;html=1;fontSize=11;fillColor=#FFF8E1;strokeColor=#FFA000;strokeWidth=2;" vertex="1" parent="1">
          <mxGeometry x="680" y="1060" width="140" height="70" as="geometry" />
        </mxCell>

        <!-- LAYER 6: DATA STORAGE -->
        <mxCell id="storage-layer" value="🗄️ DATA STORAGE &amp; VECTOR DATABASE LAYER" style="rounded=0;whiteSpace=wrap;html=1;fontSize=14;fontStyle=1;fillColor=#FCE4EC;strokeColor=#C2185B;strokeWidth=3;" vertex="1" parent="1">
          <mxGeometry x="50" y="1170" width="1500" height="60" as="geometry" />
        </mxCell>
        
        <mxCell id="forecast-db" value="📈 ChromaDB&lt;br&gt;Forecast Collection&lt;br&gt;• 94+ Documents&lt;br&gt;• Vector Embeddings&lt;br&gt;• Business Metadata&lt;br&gt;• Team Hierarchies" style="rounded=1;whiteSpace=wrap;html=1;fontSize=11;fillColor=#FCE4EC;strokeColor=#C2185B;strokeWidth=2;" vertex="1" parent="1">
          <mxGeometry x="80" y="1250" width="180" height="100" as="geometry" />
        </mxCell>
        
        <mxCell id="kpi-db" value="📊 ChromaDB&lt;br&gt;KPI Collection&lt;br&gt;• Performance Data&lt;br&gt;• Historical Metrics&lt;br&gt;• Department Info&lt;br&gt;• Trend Analysis" style="rounded=1;whiteSpace=wrap;html=1;fontSize=11;fillColor=#FCE4EC;strokeColor=#C2185B;strokeWidth=2;" vertex="1" parent="1">
          <mxGeometry x="300" y="1250" width="180" height="100" as="geometry" />
        </mxCell>
        
        <mxCell id="conversation-db" value="💬 ChromaDB&lt;br&gt;Conversations&lt;br&gt;• Context Storage&lt;br&gt;• Session History&lt;br&gt;• User Interactions&lt;br&gt;• State Persistence" style="rounded=1;whiteSpace=wrap;html=1;fontSize=11;fillColor=#FCE4EC;strokeColor=#C2185B;strokeWidth=2;" vertex="1" parent="1">
          <mxGeometry x="520" y="1250" width="180" height="100" as="geometry" />
        </mxCell>
        
        <mxCell id="vector-index" value="🧠 Vector Index&lt;br&gt;• Semantic Search&lt;br&gt;• Cosine Similarity&lt;br&gt;• HNSW Algorithm&lt;br&gt;• Fast Retrieval" style="rounded=1;whiteSpace=wrap;html=1;fontSize=11;fillColor=#FCE4EC;strokeColor=#C2185B;strokeWidth=2;" vertex="1" parent="1">
          <mxGeometry x="740" y="1250" width="180" height="100" as="geometry" />
        </mxCell>

        <!-- LAYER 7: AI SERVICES -->
        <mxCell id="ai-layer" value="🧠 AI SERVICES &amp; EXTERNAL INTEGRATIONS" style="rounded=0;whiteSpace=wrap;html=1;fontSize=14;fontStyle=1;fillColor=#E3F2FD;strokeColor=#1976D2;strokeWidth=3;" vertex="1" parent="1">
          <mxGeometry x="1100" y="760" width="450" height="60" as="geometry" />
        </mxCell>
        
        <mxCell id="gemini-llm" value="🚀 Google Gemini 2.5&lt;br&gt;• Large Language Model&lt;br&gt;• Natural Language Processing&lt;br&gt;• Multi-modal Understanding&lt;br&gt;• Response Generation" style="rounded=1;whiteSpace=wrap;html=1;fontSize=12;fillColor=#E3F2FD;strokeColor=#1976D2;strokeWidth=2;" vertex="1" parent="1">
          <mxGeometry x="1120" y="840" width="200" height="100" as="geometry" />
        </mxCell>
        
        <mxCell id="gemini-embedding" value="🔗 Gemini Embeddings&lt;br&gt;• Text Vectorization&lt;br&gt;• 768-dimensional&lt;br&gt;• Semantic Understanding&lt;br&gt;• Context Encoding" style="rounded=1;whiteSpace=wrap;html=1;fontSize=12;fillColor=#E3F2FD;strokeColor=#1976D2;strokeWidth=2;" vertex="1" parent="1">
          <mxGeometry x="1350" y="840" width="200" height="100" as="geometry" />
        </mxCell>
        
        <mxCell id="autogen-framework" value="🤖 AutoGen Framework&lt;br&gt;• Agent Orchestration&lt;br&gt;• Multi-agent Conversations&lt;br&gt;• Function Calling&lt;br&gt;• Error Handling" style="rounded=1;whiteSpace=wrap;html=1;fontSize=12;fillColor=#E3F2FD;strokeColor=#1976D2;strokeWidth=2;" vertex="1" parent="1">
          <mxGeometry x="1120" y="1060" width="200" height="100" as="geometry" />
        </mxCell>

        <!-- CONTEXT MANAGER -->
        <mxCell id="context-manager" value="📝 Context Manager&lt;br&gt;• Team Tracking&lt;br&gt;• Comparison State&lt;br&gt;• Query History&lt;br&gt;• Session Context" style="rounded=1;whiteSpace=wrap;html=1;fontSize=12;fillColor=#F1F8E9;strokeColor=#689F38;strokeWidth=2;" vertex="1" parent="1">
          <mxGeometry x="840" y="600" width="180" height="100" as="geometry" />
        </mxCell>

        <!-- PERFORMANCE MONITORING -->
        <mxCell id="monitoring" value="📈 Performance Monitor&lt;br&gt;• Response Times&lt;br&gt;• Success Rates&lt;br&gt;• Error Tracking&lt;br&gt;• Usage Analytics" style="rounded=1;whiteSpace=wrap;html=1;fontSize=12;fillColor=#FFEBEE;strokeColor=#D32F2F;strokeWidth=2;" vertex="1" parent="1">
          <mxGeometry x="1350" y="1060" width="180" height="100" as="geometry" />
        </mxCell>

        <!-- DATA FLOW ARROWS -->
        <!-- User Interface to API Gateway -->
        <mxCell id="arrow1" style="edgeStyle=orthogonalEdgeStyle;rounded=0;orthogonalLoop=1;jettySize=auto;html=1;strokeWidth=3;strokeColor=#1976D2;endArrow=block;endFill=1;" source="chainlit-ui" target="fastapi-gateway" edge="1" parent="1">
          <mxGeometry relative="1" as="geometry" />
        </mxCell>
        
        <!-- API Gateway to Orchestrator -->
        <mxCell id="arrow2" style="edgeStyle=orthogonalEdgeStyle;rounded=0;orthogonalLoop=1;jettySize=auto;html=1;strokeWidth=3;strokeColor=#F57C00;endArrow=block;endFill=1;" source="message-router" target="orchestrator-agent" edge="1" parent="1">
          <mxGeometry relative="1" as="geometry" />
        </mxCell>
        
        <!-- Orchestrator to Agents -->
        <mxCell id="arrow3" style="edgeStyle=orthogonalEdgeStyle;rounded=0;orthogonalLoop=1;jettySize=auto;html=1;strokeWidth=2;strokeColor=#388E3C;endArrow=block;endFill=1;" source="orchestrator-agent" target="forecast-agent" edge="1" parent="1">
          <mxGeometry relative="1" as="geometry" />
        </mxCell>
        
        <mxCell id="arrow4" style="edgeStyle=orthogonalEdgeStyle;rounded=0;orthogonalLoop=1;jettySize=auto;html=1;strokeWidth=2;strokeColor=#388E3C;endArrow=block;endFill=1;" source="orchestrator-agent" target="viz-agent" edge="1" parent="1">
          <mxGeometry relative="1" as="geometry" />
        </mxCell>
        
        <mxCell id="arrow5" style="edgeStyle=orthogonalEdgeStyle;rounded=0;orthogonalLoop=1;jettySize=auto;html=1;strokeWidth=2;strokeColor=#388E3C;endArrow=block;endFill=1;" source="orchestrator-agent" target="kpi-agent" edge="1" parent="1">
          <mxGeometry relative="1" as="geometry" />
        </mxCell>
        
        <!-- Agents to Functions -->
        <mxCell id="arrow6" style="edgeStyle=orthogonalEdgeStyle;rounded=0;orthogonalLoop=1;jettySize=auto;html=1;strokeWidth=2;strokeColor=#FFA000;endArrow=block;endFill=1;" source="forecast-agent" target="fetch-forecast-func" edge="1" parent="1">
          <mxGeometry relative="1" as="geometry" />
        </mxCell>
        
        <mxCell id="arrow7" style="edgeStyle=orthogonalEdgeStyle;rounded=0;orthogonalLoop=1;jettySize=auto;html=1;strokeWidth=2;strokeColor=#FFA000;endArrow=block;endFill=1;" source="viz-agent" target="create-viz-func" edge="1" parent="1">
          <mxGeometry relative="1" as="geometry" />
        </mxCell>
        
        <mxCell id="arrow8" style="edgeStyle=orthogonalEdgeStyle;rounded=0;orthogonalLoop=1;jettySize=auto;html=1;strokeWidth=2;strokeColor=#FFA000;endArrow=block;endFill=1;" source="kpi-agent" target="fetch-kpi-func" edge="1" parent="1">
          <mxGeometry relative="1" as="geometry" />
        </mxCell>
        
        <!-- Functions to Database -->
        <mxCell id="arrow9" style="edgeStyle=orthogonalEdgeStyle;rounded=0;orthogonalLoop=1;jettySize=auto;html=1;strokeWidth=2;strokeColor=#C2185B;endArrow=block;endFill=1;" source="fetch-forecast-func" target="forecast-db" edge="1" parent="1">
          <mxGeometry relative="1" as="geometry" />
        </mxCell>
        
        <mxCell id="arrow10" style="edgeStyle=orthogonalEdgeStyle;rounded=0;orthogonalLoop=1;jettySize=auto;html=1;strokeWidth=2;strokeColor=#C2185B;endArrow=block;endFill=1;" source="fetch-kpi-func" target="kpi-db" edge="1" parent="1">
          <mxGeometry relative="1" as="geometry" />
        </mxCell>
        
        <!-- Database to AI Services -->
        <mxCell id="arrow11" style="edgeStyle=orthogonalEdgeStyle;rounded=0;orthogonalLoop=1;jettySize=auto;html=1;strokeWidth=2;strokeColor=#1976D2;endArrow=block;endFill=1;" source="vector-index" target="gemini-embedding" edge="1" parent="1">
          <mxGeometry relative="1" as="geometry" />
        </mxCell>
        
        <!-- Context Manager connections -->
        <mxCell id="arrow12" style="edgeStyle=orthogonalEdgeStyle;rounded=0;orthogonalLoop=1;jettySize=auto;html=1;strokeWidth=2;strokeColor=#689F38;endArrow=block;endFill=1;" source="orchestrator-agent" target="context-manager" edge="1" parent="1">
          <mxGeometry relative="1" as="geometry" />
        </mxCell>
        
        <mxCell id="arrow13" style="edgeStyle=orthogonalEdgeStyle;rounded=0;orthogonalLoop=1;jettySize=auto;html=1;strokeWidth=2;strokeColor=#689F38;endArrow=block;endFill=1;" source="context-manager" target="conversation-db" edge="1" parent="1">
          <mxGeometry relative="1" as="geometry" />
        </mxCell>

        <!-- Legend -->
        <mxCell id="legend-box" value="🔍 SYSTEM LEGEND" style="rounded=1;whiteSpace=wrap;html=1;fontSize=14;fontStyle=1;fillColor=#F5F5F5;strokeColor=#424242;strokeWidth=2;" vertex="1" parent="1">
          <mxGeometry x="1350" y="200" width="200" height="40" as="geometry" />
        </mxCell>
        
        <mxCell id="legend-content" value="🔵 User Interface Layer&lt;br&gt;🟣 API Gateway &amp; Routing&lt;br&gt;🟠 Orchestration &amp; Control&lt;br&gt;🟢 Intelligent Agents&lt;br&gt;🟡 Function Execution&lt;br&gt;🔴 Data Storage &amp; Vectors&lt;br&gt;🔵 AI Services &amp; LLM&lt;br&gt;🌱 Context &amp; State Management" style="rounded=1;whiteSpace=wrap;html=1;fontSize=10;fillColor=#F5F5F5;strokeColor=#424242;strokeWidth=1;align=left;" vertex="1" parent="1">
          <mxGeometry x="1350" y="250" width="200" height="140" as="geometry" />
        </mxCell>

        <!-- Performance Metrics Box -->
        <mxCell id="metrics-box" value="📊 PERFORMANCE METRICS" style="rounded=1;whiteSpace=wrap;html=1;fontSize=12;fontStyle=1;fillColor=#E8F5E8;strokeColor=#388E3C;strokeWidth=2;" vertex="1" parent="1">
          <mxGeometry x="1100" y="200" width="200" height="40" as="geometry" />
        </mxCell>
        
        <mxCell id="metrics-content" value="⚡ Query Response: &lt; 3s&lt;br&gt;📈 Success Rate: 98.7%&lt;br&gt;🎨 Chart Generation: &lt; 2s&lt;br&gt;🔍 ChromaDB Query: &lt; 1s&lt;br&gt;🤖 Agent Delegation: 320ms&lt;br&gt;💾 94+ Forecast Documents&lt;br&gt;🧠 768-dim Embeddings&lt;br&gt;🎯 Ultra-robust Error Handling" style="rounded=1;whiteSpace=wrap;html=1;fontSize=9;fillColor=#E8F5E8;strokeColor=#388E3C;strokeWidth=1;align=left;" vertex="1" parent="1">
          <mxGeometry x="1100" y="250" width="200" height="140" as="geometry" />
        </mxCell>

        <!-- Technology Stack -->
        <mxCell id="tech-stack" value="🔧 TECHNOLOGY STACK&lt;br&gt;• Python 3.12+ Backend&lt;br&gt;• Google Gemini 2.5 Flash&lt;br&gt;• Microsoft AutoGen&lt;br&gt;• ChromaDB Vector DB&lt;br&gt;• Chainlit UI Framework&lt;br&gt;• Plotly Visualizations&lt;br&gt;• FastAPI Web Framework" style="rounded=1;whiteSpace=wrap;html=1;fontSize=11;fillColor=#FFF3E0;strokeColor=#F57C00;strokeWidth=2;align=left;" vertex="1" parent="1">
          <mxGeometry x="850" y="200" width="200" height="140" as="geometry" />
        </mxCell>

      </root>
    </mxGraphModel>
  </diagram>
</mxfile> 